<svg xmlns="http://www.w3.org/2000/svg" viewBox="0 0 2600 1000" role="img" aria-label="Developer code interface introducing Ha22yX">
  <defs>
    <radialGradient id="devBg" cx="42%" cy="43%" r="78%">
      <stop offset="0" stop-color="#10262e"/>
      <stop offset="0.46" stop-color="#071116"/>
      <stop offset="1" stop-color="#02030a"/>
    </radialGradient>
    <linearGradient id="panel" x1="0" y1="0" x2="1" y2="1">
      <stop offset="0" stop-color="#122b32" stop-opacity="0.94"/>
      <stop offset="0.56" stop-color="#05070d" stop-opacity="0.96"/>
      <stop offset="1" stop-color="#0d151c" stop-opacity="0.88"/>
    </linearGradient>
    <linearGradient id="cyan" x1="0" y1="0" x2="1" y2="0">
      <stop offset="0" stop-color="#93f3ff"/>
      <stop offset="0.58" stop-color="#dacbe1"/>
      <stop offset="1" stop-color="#b9ff6a"/>
    </linearGradient>
    <linearGradient id="scan" x1="0" y1="0" x2="1" y2="0">
      <stop offset="0" stop-color="#93f3ff" stop-opacity="0"/>
      <stop offset="0.48" stop-color="#93f3ff" stop-opacity="0.38"/>
      <stop offset="1" stop-color="#b9ff6a" stop-opacity="0"/>
    </linearGradient>
    <filter id="glow" x="-30%" y="-30%" width="160%" height="160%">
      <feGaussianBlur stdDeviation="10" result="blur"/>
      <feMerge>
        <feMergeNode in="blur"/>
        <feMergeNode in="SourceGraphic"/>
      </feMerge>
    </filter>
    <pattern id="dots" width="34" height="34" patternUnits="userSpaceOnUse">
      <circle cx="2" cy="2" r="1.35" fill="#93f3ff" fill-opacity="0.22"/>
    </pattern>
  </defs>
  <rect width="2600" height="1000" fill="url(#devBg)"/>
  <rect width="2600" height="1000" fill="url(#dots)" opacity="0.82"/>
  <g opacity="0.64">
    <path d="M120 202h2360M120 824h2360M250 94v812M2350 94v812" stroke="#93f3ff" stroke-opacity="0.12"/>
    <path d="M108 548c350-204 568-138 854-252 410-164 792-90 1450 156" fill="none" stroke="#93f3ff" stroke-opacity="0.18" stroke-width="3" stroke-dasharray="12 18"/>
  </g>
  <g transform="translate(190 132)">
    <rect x="92" y="54" width="2118" height="652" rx="28" fill="#02030a" fill-opacity="0.34" stroke="#93f3ff" stroke-opacity="0.1"/>
    <rect x="0" y="0" width="2148" height="646" rx="26" fill="url(#panel)" stroke="#93f3ff" stroke-opacity="0.42"/>
    <rect x="0" y="0" width="2148" height="72" rx="26" fill="#111418"/>
    <rect x="0" y="46" width="2148" height="26" fill="#111418"/>
    <circle cx="38" cy="36" r="8" fill="#ff6f7f"/>
    <circle cx="66" cy="36" r="8" fill="#d8a535"/>
    <circle cx="94" cy="36" r="8" fill="#6ee7a8"/>
    <text x="140" y="43" fill="#dacbe1" fill-opacity="0.72" font-family="ui-monospace, SFMono-Regular, Menlo, Consolas, monospace" font-size="21" font-weight="800">rosebeg.identity.tsx</text>
    <g font-family="ui-monospace, SFMono-Regular, Menlo, Consolas, monospace" font-size="31" font-weight="700">
      <text x="70" y="142" fill="#64747a">01</text>
      <text x="132" y="142" fill="#8ef2ff">import signalField from "rosebeg"</text>
      <text x="70" y="206" fill="#64747a">02</text>
      <text x="132" y="206" fill="#8ef2ff">const</text>
      <text x="232" y="206" fill="#dacbe1">Rosebeg = createSignalField({"{"}</text>
      <text x="70" y="270" fill="#64747a">03</text>
      <text x="172" y="270" fill="#93f3ff">systems</text>
      <text x="330" y="270" fill="#dacbe1">: [</text>
      <text x="382" y="270" fill="#d8a535">"AI"</text>
      <text x="466" y="270" fill="#dacbe1">,</text>
      <text x="506" y="270" fill="#d8a535">"web"</text>
      <text x="604" y="270" fill="#dacbe1">,</text>
      <text x="644" y="270" fill="#d8a535">"tools"</text>
      <text x="780" y="270" fill="#dacbe1">],</text>
      <text x="70" y="334" fill="#64747a">04</text>
      <text x="172" y="334" fill="#93f3ff">method</text>
      <text x="310" y="334" fill="#dacbe1">: </text>
      <text x="354" y="334" fill="#d8a535">"ship ideas"</text>
      <text x="70" y="398" fill="#64747a">05</text>
      <text x="172" y="398" fill="#93f3ff">style</text>
      <text x="288" y="398" fill="#dacbe1">: </text>
      <text x="334" y="398" fill="#d8a535">"precise, visual"</text>
      <text x="70" y="462" fill="#64747a">06</text>
      <text x="132" y="462" fill="#dacbe1">{"})"}</text>
      <text x="70" y="548" fill="#64747a">07</text>
      <text x="132" y="548" fill="#8ef2ff">export default</text>
      <text x="402" y="548" fill="#dacbe1">Ha22yX</text>
    </g>
    <g transform="translate(920 114)" opacity="0.46">
      <rect x="0" y="0" width="794" height="382" rx="24" fill="#02030a" fill-opacity="0.52" stroke="#dacbe1" stroke-opacity="0.2"/>
      <path d="M54 76h500M54 128h682M54 180h602M54 232h452M54 284h634" stroke="#dacbe1" stroke-opacity="0.8" stroke-width="6"/>
      <path d="M54 76h220M54 128h338M54 180h188M54 232h290M54 284h246" stroke="#93f3ff" stroke-opacity="0.5" stroke-width="6"/>
      <rect x="426" y="48" width="314" height="188" rx="20" fill="#02030a" fill-opacity="0.76" stroke="#93f3ff" stroke-opacity="0.32"/>
      <path d="M470 96h224M470 144h176M470 192h136" stroke="#dacbe1" stroke-opacity="0.72" stroke-width="5"/>
    </g>
    <g transform="translate(1570 242)" filter="url(#glow)">
      <rect width="420" height="210" rx="22" fill="#071015" fill-opacity="0.82" stroke="url(#cyan)" stroke-opacity="0.9"/>
      <text x="32" y="52" fill="#93f3ff" font-family="ui-monospace, SFMono-Regular, Menlo, Consolas, monospace" font-size="18" font-weight="900">BUILD STATUS</text>
      <text x="32" y="96" fill="#dacbe1" font-family="ui-monospace, SFMono-Regular, Menlo, Consolas, monospace" font-size="24" font-weight="900">creative systems online</text>
      <path d="M34 140h78M134 140h128M286 140h78" stroke="#b9ff6a" stroke-width="6" stroke-linecap="round"/>
      <path d="M34 170h154M214 170h92" stroke="#93f3ff" stroke-width="6" stroke-linecap="round" opacity="0.64"/>
    </g>
    <rect x="0" y="574" width="2148" height="72" fill="url(#scan)" opacity="0.28"/>
  </g>
</svg>
