<svg xmlns="http://www.w3.org/2000/svg" viewBox="0 0 1600 1000" role="img" aria-label="Autonomous UAV sensor fusion interface">
  <defs>
    <radialGradient id="bgGlow" cx="50%" cy="50%" r="68%">
      <stop offset="0" stop-color="#203b38"/>
      <stop offset="0.45" stop-color="#101814"/>
      <stop offset="1" stop-color="#03050a"/>
    </radialGradient>
    <linearGradient id="cyanLine" x1="0" y1="0" x2="1" y2="1">
      <stop offset="0" stop-color="#93f3ff"/>
      <stop offset="0.55" stop-color="#b9ff6a"/>
      <stop offset="1" stop-color="#6f5bff"/>
    </linearGradient>
    <filter id="softGlow" x="-40%" y="-40%" width="180%" height="180%">
      <feGaussianBlur stdDeviation="12" result="blur"/>
      <feMerge>
        <feMergeNode in="blur"/>
        <feMergeNode in="SourceGraphic"/>
      </feMerge>
    </filter>
    <pattern id="grid" width="46" height="46" patternUnits="userSpaceOnUse">
      <path d="M46 0H0V46" fill="none" stroke="#93f3ff" stroke-opacity="0.075" stroke-width="1"/>
      <circle cx="0" cy="0" r="1.6" fill="#93f3ff" fill-opacity="0.18"/>
    </pattern>
  </defs>
  <rect width="1600" height="1000" fill="url(#bgGlow)"/>
  <rect width="1600" height="1000" fill="url(#grid)"/>
  <g opacity="0.58">
    <path d="M190 780C340 596 458 623 604 438C748 256 914 233 1100 292C1246 339 1352 438 1464 246" fill="none" stroke="#93f3ff" stroke-width="3" stroke-dasharray="9 18"/>
    <path d="M154 274C342 362 474 318 620 286C834 238 1005 270 1194 406C1313 491 1412 550 1514 502" fill="none" stroke="#b9ff6a" stroke-width="2" stroke-dasharray="4 20"/>
  </g>
  <g filter="url(#softGlow)">
    <circle cx="604" cy="438" r="10" fill="#93f3ff"/>
    <circle cx="1100" cy="292" r="10" fill="#b9ff6a"/>
    <circle cx="1194" cy="406" r="7" fill="#ff6f7f"/>
    <circle cx="806" cy="522" r="8" fill="#dacbe1"/>
  </g>
  <g transform="translate(710 388)" filter="url(#softGlow)">
    <path d="M0-56 22-9 78 0 22 9 0 56-22 9-78 0-22-9Z" fill="#071015" stroke="url(#cyanLine)" stroke-width="8" stroke-linejoin="round"/>
    <circle cx="0" cy="0" r="21" fill="#93f3ff" fill-opacity="0.16" stroke="#93f3ff" stroke-width="4"/>
    <path d="M-95-14h-94M95 14h94M-16-92v-86M16 92v86" stroke="#93f3ff" stroke-width="5" stroke-linecap="round" stroke-opacity="0.72"/>
    <circle cx="-214" cy="-14" r="18" fill="none" stroke="#b9ff6a" stroke-width="4"/>
    <circle cx="214" cy="14" r="18" fill="none" stroke="#b9ff6a" stroke-width="4"/>
    <circle cx="-16" cy="-202" r="18" fill="none" stroke="#b9ff6a" stroke-width="4"/>
    <circle cx="16" cy="202" r="18" fill="none" stroke="#b9ff6a" stroke-width="4"/>
  </g>
  <g fill="none" stroke="#dacbe1" stroke-opacity="0.28">
    <ellipse cx="806" cy="500" rx="420" ry="170" transform="rotate(-12 806 500)"/>
    <ellipse cx="806" cy="500" rx="620" ry="250" transform="rotate(9 806 500)"/>
    <ellipse cx="806" cy="500" rx="260" ry="106" transform="rotate(38 806 500)"/>
  </g>
  <g font-family="ui-monospace, SFMono-Regular, Menlo, Consolas, monospace" letter-spacing="3" fill="#93f3ff">
    <text x="92" y="112" font-size="25" font-weight="800">ROSEBEG AUTONOMY / SENSOR FUSION</text>
    <text x="92" y="154" font-size="16" opacity="0.58">UAV RELATIVE POSITIONING · MULTI-NODE TRACKING · FIELD LOG 04</text>
    <text x="1180" y="818" font-size="18" opacity="0.62">PX4 / UWB / VISION</text>
    <text x="1180" y="850" font-size="18" opacity="0.44">LOCK: 0.018M RMS</text>
  </g>
  <g transform="translate(102 710)" opacity="0.62">
    <rect width="360" height="150" rx="18" fill="#02030b" fill-opacity="0.58" stroke="#93f3ff" stroke-opacity="0.35"/>
    <path d="M28 42h118M28 72h210M28 102h170M28 132h260" stroke="#dacbe1" stroke-opacity="0.62" stroke-width="4" stroke-linecap="round"/>
    <circle cx="302" cy="48" r="21" fill="#b9ff6a" fill-opacity="0.14" stroke="#b9ff6a"/>
  </g>
  <g transform="translate(1184 116)" opacity="0.62">
    <rect width="314" height="172" rx="18" fill="#02030b" fill-opacity="0.5" stroke="#b9ff6a" stroke-opacity="0.28"/>
    <path d="M34 122 92 82 146 104 214 52 272 76" fill="none" stroke="#b9ff6a" stroke-width="6" stroke-linecap="round" stroke-linejoin="round"/>
    <path d="M34 144h236" stroke="#dacbe1" stroke-opacity="0.24"/>
  </g>
</svg>
